<?xml version="1.0" encoding="UTF-8"?>
<!DOCTYPE svg PUBLIC "-//W3C//DTD SVG 1.1//EN" "http://www.w3.org/Graphics/SVG/1.1/DTD/svg11.dtd">
<!-- Creator: CorelDRAW (Evaluation Version) -->
<svg xmlns="http://www.w3.org/2000/svg" xml:space="preserve" width="297mm" height="210mm" version="1.1" style="shape-rendering:geometricPrecision; text-rendering:geometricPrecision; image-rendering:optimizeQuality; fill-rule:evenodd; clip-rule:evenodd"
viewBox="0 0 29700 21000"
 xmlns:xlink="http://www.w3.org/1999/xlink"
 xmlns:xodm="http://www.corel.com/coreldraw/odm/2003">
 <defs>
  <style type="text/css">
   <![CDATA[
    .str1 {stroke:#1F1B20;stroke-width:20;stroke-miterlimit:22.9256}
    .str0 {stroke:#1F1B20;stroke-width:20;stroke-miterlimit:22.9256}
    .fil1 {fill:none}
    .fil2 {fill:#FEFEFE}
    .fil0 {fill:#1F1B20}
   ]]>
  </style>
 </defs>
 <g id="Layer_x0020_1">
  <metadata id="CorelCorpID_0Corel-Layer"/>
  <g id="_1288933188800">
   <path class="fil0" d="M12772.57 2495.45l4111.61 0c1302.01,0 2367.29,1065.28 2367.29,2367.29l0 8897.26c0,1302.01 -1065.28,2367.29 -2367.29,2367.29l-4111.61 0c-1302.01,0 -2367.29,-1065.28 -2367.29,-2367.29l0 -4139.05 0 -628.63 0 -172.9 0 -732.83 0 -167.41 0 -371.12 0 -250.44 0 -2434.88c0,-1302.01 1065.28,-2367.29 2367.29,-2367.29z"/>
   <path class="fil1 str0" d="M10405.28 7297.62l0 -2434.88c0,-1302.01 1065.28,-2367.29 2367.29,-2367.29l4111.61 0c1302.01,0 2367.29,1065.28 2367.29,2367.29l0 8897.26c0,1302.01 -1065.28,2367.29 -2367.29,2367.29l-4111.61 0c-1302.01,0 -2367.29,-1065.28 -2367.29,-2367.29l0 -4139.05 0 -628.63 0 -172.9 0 -732.83 0 -167.41 0 -371.12 0 -250.44"/>
  </g>
  <g id="_1288933184096">
   <path class="fil2" d="M16603.53 3145.5l-3463.37 0c-1096.74,0 -1994.07,897.33 -1994.07,1994.07l0 8343.6c0,1096.74 897.33,1994.07 1994.07,1994.07l3463.37 0c1096.74,0 1994.07,-897.33 1994.07,-1994.07l0 -3523.03 0 -58.67 0 -741.41 0 -7.35 0 -160.39 0 -172.9 0 -732.83 0 -167.41 0 -371.12 0 -2408.49c0,-1096.74 -897.33,-1994.07 -1994.07,-1994.07z"/>
   <line class="fil1 str0" x1="18597.6" y1="9160.06" x2="18597.6" y2= "9152.71" />
   <polyline class="fil1 str0" points="18597.6,9152.71 18597.6,8992.32 18597.6,8819.42 18597.6,8086.59 18597.6,7919.18 18597.6,7548.06 "/>
   <path class="fil1 str0" d="M18597.6 9960.14l0 -58.67m0 -2353.41l0 -2408.49c0,-1096.74 -897.33,-1994.07 -1994.07,-1994.07l-3463.37 0c-1096.74,0 -1994.07,897.33 -1994.07,1994.07l0 8343.6c0,1096.74 897.33,1994.07 1994.07,1994.07l3463.37 0c1096.74,0 1994.07,-897.33 1994.07,-1994.07l0 -3523.03"/>
   <line class="fil1 str0" x1="18597.6" y1="9901.47" x2="18597.6" y2= "9160.06" />
  </g>
  <rect class="fil0 str1" x="13392.68" y="3800.61" width="3190.43" height="401.11" rx="188.53" ry="200.56"/>
  <ellipse class="fil0 str1" cx="12836.25" cy="4028.85" rx="226.69" ry="235.94"/>
  <rect class="fil0 str1" x="11117.19" y="12948.81" width="7509.38" height="986.62"/>
  <rect class="fil0 str1" transform="matrix(0.00373919 0.71393 -2.4993 -0.0373425 13891.4 10541.3)" width="6931.94" height="406.06"/>
  <rect class="fil0 str1" transform="matrix(-0.00169551 0.719587 -2.60699 -0.0716189 16886.7 10653.6)" width="6931.94" height="406.06"/>
  <rect class="fil0 str1" x="11081.1" y="10475.39" width="7699.3" height="921.79"/>
  <path class="fil0" d="M13175.78 17676.94c-510.75,0 -924.79,-472.19 -924.79,-1054.7 0,-5.79 0.1,-11.54 0.19,-17.29l1849.21 0c0.09,5.75 0.19,11.5 0.19,17.29 0,582.51 -414.05,1054.7 -924.8,1054.7z"/>
  <path class="fil0" d="M16123.38 17676.94c-499.18,0 -903.84,-461.5 -903.84,-1030.8 0,-5.66 0.1,-11.28 0.19,-16.9l1807.31 0c0.09,5.62 0.19,11.24 0.19,16.9 0,569.3 -404.67,1030.8 -903.85,1030.8z"/>
  <g id="_1288933185392">
   <path class="fil0" d="M9965.08 8696.32c268.41,390.41 860.3,1094.28 859.38,1547l-152.23 34.77c-277.37,-14.84 -1166.41,-676.86 -1442.5,-897.25 -189.02,-203.07 -177.64,-520.91 25.42,-709.93 203.07,-189.02 520.91,-177.65 709.93,25.41z"/>
  </g>
  <path class="fil1" d="M9597.41 9038.58c37.08,39.83 1140.79,1189.95 1227.05,1204.74"/>
 </g>
</svg>
